<svg width="16" height="16" viewBox="0 0 16 16" fill="none" xmlns="http://www.w3.org/2000/svg">
<g clip-path="url(#clip0_1_274)">
<path d="M14.6669 11.2799V13.2799C14.6676 13.4656 14.6296 13.6494 14.5552 13.8195C14.4808 13.9896 14.3718 14.1423 14.2349 14.2678C14.0981 14.3933 13.9366 14.4889 13.7607 14.5484C13.5848 14.6079 13.3985 14.63 13.2135 14.6133C11.1621 14.3903 9.19151 13.6893 7.46017 12.5666C5.84937 11.543 4.4837 10.1773 3.46014 8.56654C2.33345 6.82733 1.63229 4.84718 1.41346 2.7865C1.3968 2.60214 1.41871 2.41634 1.47779 2.24091C1.53687 2.06548 1.63184 1.90428 1.75664 1.76757C1.88143 1.63086 2.03333 1.52163 2.20266 1.44684C2.37198 1.37204 2.55502 1.33333 2.74013 1.33315H4.74015C5.06369 1.32997 5.37735 1.44454 5.62266 1.65551C5.86798 1.86648 6.02821 2.15946 6.07349 2.47983C6.15791 3.11988 6.31446 3.74832 6.54016 4.35318C6.62986 4.59179 6.64927 4.85112 6.5961 5.10044C6.54293 5.34975 6.4194 5.57859 6.24016 5.75985L5.39349 6.60653C6.34253 8.27557 7.72447 9.65751 9.39352 10.6066L10.2402 9.75988C10.4214 9.58064 10.6503 9.45711 10.8996 9.40394C11.1489 9.35077 11.4082 9.37018 11.6469 9.45988C12.2517 9.68558 12.8802 9.84214 13.5202 9.92655C13.8441 9.97224 14.1398 10.1354 14.3512 10.3849C14.5627 10.6344 14.675 10.9529 14.6669 11.2799Z" stroke="#4A5565" stroke-width="1.33326" stroke-linecap="round" stroke-linejoin="round"/>
</g>
<defs>
<clipPath id="clip0_1_274">
<rect width="15.9991" height="15.9991" fill="white"/>
</clipPath>
</defs>
</svg>
