<svg width="64" height="64" viewBox="0 0 64 64" fill="none" xmlns="http://www.w3.org/2000/svg">
<path d="M0 32C0 14.3269 14.3269 0 32 0C49.6731 0 64 14.3269 64 32C64 49.6731 49.6731 64 32 64C14.3269 64 0 49.6731 0 32Z" fill="black"/>
<path d="M31.3665 19.06C31.4249 18.942 31.5152 18.8426 31.6271 18.7731C31.739 18.7036 31.8681 18.6668 31.9998 18.6668C32.1315 18.6668 32.2606 18.7036 32.3725 18.7731C32.4845 18.8426 32.5747 18.942 32.6331 19.06L35.7131 25.2987C35.916 25.7093 36.2156 26.0646 36.586 26.334C36.9564 26.6034 37.3866 26.7788 37.8398 26.8454L44.7278 27.8534C44.8583 27.8723 44.9809 27.9273 45.0818 28.0123C45.1827 28.0973 45.2577 28.2088 45.2985 28.3342C45.3393 28.4596 45.3442 28.5939 45.3126 28.7219C45.281 28.85 45.2142 28.9666 45.1198 29.0587L40.1385 33.9094C39.81 34.2295 39.5642 34.6247 39.4223 35.0609C39.2803 35.4971 39.2466 35.9612 39.3238 36.4134L40.4998 43.2667C40.5229 43.3971 40.5088 43.5314 40.4591 43.6543C40.4095 43.7771 40.3264 43.8835 40.2192 43.9613C40.112 44.0392 39.9851 44.0853 39.853 44.0945C39.7208 44.1037 39.5887 44.0756 39.4718 44.0133L33.3145 40.776C32.9088 40.563 32.4574 40.4517 31.9991 40.4517C31.5409 40.4517 31.0895 40.563 30.6838 40.776L24.5278 44.0133C24.4109 44.0752 24.279 44.1031 24.1471 44.0937C24.0152 44.0843 23.8885 44.0381 23.7815 43.9603C23.6746 43.8825 23.5916 43.7763 23.542 43.6536C23.4925 43.531 23.4783 43.397 23.5011 43.2667L24.6758 36.4147C24.7534 35.9623 24.7198 35.4979 24.5779 35.0614C24.4359 34.6249 24.19 34.2296 23.8611 33.9094L18.8798 29.06C18.7846 28.9681 18.7171 28.8512 18.6851 28.7228C18.6531 28.5944 18.6577 28.4595 18.6986 28.3336C18.7394 28.2077 18.8148 28.0958 18.9162 28.0107C19.0175 27.9255 19.1408 27.8706 19.2718 27.852L26.1585 26.8454C26.6122 26.7794 27.043 26.6041 27.4139 26.3347C27.7849 26.0652 28.0848 25.7097 28.2878 25.2987L31.3665 19.06Z" stroke="white" stroke-width="2.66652" stroke-linecap="round" stroke-linejoin="round"/>
</svg>
